# xmcd CD database file
#
# Track frame offsets:
#	150
#	14357
#	27272
#	45182
#	61900
#	82250
#	98257
#	114732
#	137920
#	158780
#	177427
#	192920
#
# Disc length: 2813 seconds
#
# Revision: 0
# Processed by: cddbd v1.5PL3 Copyright (c) Steve Scherf et al.
# Submitted via: CDex 1.51
#
DISCID=950afb0c
DTITLE=荒井由実etc. - ウインター・ワンダー・ランド
DYEAR=1900
DGENRE=JPop
TTITLE0=１２月の雨/荒井由実
TTITLE1=ACTOR MR.SANTA CLAUS/種ともこ
TTITLE2=再開（AGEIN）/南　佳孝
TTITLE3=クリスマスの扉/須藤　薫
TTITLE4=悲しみのタペストリー/吉野千代乃
TTITLE5=冬の海に/杉　真理
TTITLE6=木枯しの少女-BAD GIRL But-/The東南西北
TTITLE7=SMILE&SLEEP/斉藤　誠
TTITLE8=蒼いブリザード/斉藤さおり
TTITLE9=THE LAST LETTER/BREAD&BUTTER
TTITLE10=恋の日記/Hi-Fi SET
TTITLE11=夢で逢えたら/サーカス
EXTD=
EXTT0=
EXTT1=
EXTT2=
EXTT3=
EXTT4=
EXTT5=
EXTT6=
EXTT7=
EXTT8=
EXTT9=
EXTT10=
EXTT11=
PLAYORDER=
